<svg width="126" height="40" viewBox="0 0 126 40" fill="none" xmlns="http://www.w3.org/2000/svg">
<g clip-path="url(#clip0_1904_279)">
<path d="M124.971 39.1408L69.0329 19.9755L118.818 0.979381C119.016 0.9037 119.134 0.696688 119.094 0.48745C119.056 0.278213 118.874 0.126849 118.66 0.126849H60.5142C60.4608 0.126849 60.4074 0.135753 60.3584 0.155787L47.2899 5.0929L49.6917 0.654395C49.7652 0.518614 49.763 0.351669 49.6828 0.218113C49.6027 0.0845568 49.458 0.00219727 49.3044 0.00219727H17.3155C17.1397 0.00219727 16.9794 0.106816 16.9104 0.269309L0.0356325 39.3433C-0.0222418 39.4791 -0.00888618 39.6371 0.0712474 39.7618C0.153607 39.8865 0.291615 39.9599 0.440752 39.9599H32.2315C32.4096 39.9599 32.5699 39.8531 32.6389 39.6883L35.3857 33.0907L37.3845 32.7546L58.197 39.9755C58.2438 39.9911 58.2927 40 58.3417 40H124.826C125.042 40 125.227 39.8442 125.262 39.6305C125.298 39.4168 125.173 39.2098 124.971 39.1408V39.1408Z" fill="white"/>
<path d="M64.4363 20.0556L112.565 1.68947H60.719L43.9154 8.0356L47.4168 1.56482H18.0546L2.15027 38.3951H31.4814L34.2749 31.6928L37.5203 31.1452L58.5331 38.4352H118.086L64.4363 20.0556Z" fill="#DD182C"/>
<path d="M125.198 17.7407C125.115 17.616 124.977 17.5426 124.828 17.5426H121.663L122.518 15.5548C122.584 15.399 122.555 15.2187 122.444 15.0896C122.359 14.9917 122.237 14.9382 122.11 14.9382C122.072 14.9382 122.032 14.9427 121.994 14.9538L114.032 17.133C112.414 17.0284 110.994 17.3712 110.4 17.5381L97.084 17.5426C96.6744 17.4446 95.8486 17.2955 94.7067 17.2955C92.5342 17.2955 90.6622 17.8475 89.2955 18.6333C88.8547 17.9989 87.675 17.4179 85.8475 17.4046C84.7501 17.3957 83.399 17.5826 81.8965 18.1102C81.4491 17.7919 80.601 17.409 79.1118 17.409C78.6822 17.409 78.079 17.458 77.5247 17.5403H71.4591L69.2532 18.5531L66.7735 24.167C66.7134 24.3027 66.7267 24.4608 66.8069 24.5877C66.8892 24.7123 67.0273 24.788 67.1764 24.788H108.176C108.352 24.788 108.512 24.6834 108.581 24.5209C108.581 24.5209 109.433 22.5287 109.558 22.2304C109.672 21.99 109.732 21.9566 110.82 21.7696C111.087 21.7229 111.426 21.7006 111.824 21.7006C111.597 22.3773 111.657 23.0696 112.004 23.6439C112.432 24.3606 113.211 24.7902 114.083 24.7902H122.092C122.268 24.7902 122.428 24.6834 122.497 24.5231L125.233 18.1658C125.291 18.0301 125.278 17.872 125.195 17.7474L125.198 17.7407Z" fill="white"/>
<path d="M88.3227 20.4964C88.3227 20.4964 88.848 18.7824 85.892 18.7824C83.1252 18.7824 81.9054 19.5481 81.5359 19.7039C81.5359 19.7039 81.1953 18.7824 79.1474 18.7824C76.3851 18.7824 75.6349 19.4302 75.2587 19.586L75.5771 18.887H70.5798L68.5698 23.4235H73.5693L74.6577 20.9349C74.907 20.7457 75.2387 20.5075 75.8709 20.5075C76.503 20.5075 76.6388 20.7167 76.5809 20.8726L75.4613 23.4235H80.3161L81.4045 20.9349C81.6538 20.7457 81.9811 20.5075 82.6199 20.5075C83.2587 20.5075 83.3834 20.7167 83.3233 20.8726L82.2036 23.4235H87.0384L88.3249 20.4964H88.3227Z" fill="#1C6AAF"/>
<path d="M93.8564 21.1441C93.7919 21.4379 94.4641 21.6071 95.4413 21.6071C96.483 21.6071 97.1731 21.251 97.2376 20.9571C97.2977 20.6633 96.7056 20.4986 95.6683 20.4986C94.6867 20.4986 93.9165 20.8503 93.8564 21.1441ZM94.6021 18.7067C95.448 18.7067 97.3422 18.9004 98.0434 19.3233L98.2771 18.887H103.33L101.358 23.4235H96.3072L96.5899 22.7824C96.0979 23.054 94.7846 23.5325 93.0707 23.5325C91.3567 23.5325 88.3962 23.2142 88.5253 21.5804C88.6611 19.9243 91.3122 18.7067 94.6021 18.7067V18.7067Z" fill="#1C6AAF"/>
<path d="M113.042 20.3895C110.081 20.2181 108.652 20.9171 108.356 21.6093L107.575 23.4235H102.491L104.456 18.887H109.547L109.315 19.3233C110.914 18.6733 112.779 18.404 113.874 18.4841L113.039 20.3895H113.042Z" fill="#1C6AAF"/>
<path d="M121.494 23.4257L122.237 21.7028H118.417L118.998 20.3561H122.814L123.448 18.887H119.617L120.536 16.7501L114.733 18.3172L113.16 21.9833C112.806 22.7601 113.302 23.4212 114.112 23.4212H121.496L121.494 23.4257Z" fill="#1C6AAF"/>
</g>
<defs>
<clipPath id="clip0_1904_279">
<rect width="125.271" height="40" fill="white"/>
</clipPath>
</defs>
</svg>
